<svg width="1200" height="630" viewBox="0 0 1200 630" fill="none" xmlns="http://www.w3.org/2000/svg">
  <rect width="1200" height="630" rx="36" fill="url(#bg)"/>
  <g opacity="0.18">
    <path d="M74 122H1126" stroke="#E9F4FF" stroke-width="2"/>
    <path d="M74 212H1126" stroke="#E9F4FF" stroke-width="2"/>
    <path d="M74 302H1126" stroke="#E9F4FF" stroke-width="2"/>
    <path d="M74 392H1126" stroke="#E9F4FF" stroke-width="2"/>
    <path d="M74 482H1126" stroke="#E9F4FF" stroke-width="2"/>
    <path d="M240 86V544" stroke="#E9F4FF" stroke-width="2"/>
    <path d="M452 86V544" stroke="#E9F4FF" stroke-width="2"/>
    <path d="M664 86V544" stroke="#E9F4FF" stroke-width="2"/>
    <path d="M876 86V544" stroke="#E9F4FF" stroke-width="2"/>
  </g>
  <rect x="74" y="78" width="468" height="474" rx="40" fill="url(#panel)" fill-opacity="0.94"/>
  <rect x="116" y="144" width="24" height="208" rx="12" fill="#47D6A0"/>
  <rect x="182" y="104" width="24" height="248" rx="12" fill="#8BD6FF"/>
  <rect x="248" y="190" width="24" height="162" rx="12" fill="#F5B85D"/>
  <rect x="314" y="132" width="24" height="220" rx="12" fill="#FF7C66"/>
  <rect x="380" y="166" width="24" height="186" rx="12" fill="#47D6A0"/>
  <path d="M108 304L194 254L260 270L326 216L392 236L466 170" stroke="#F7FAFF" stroke-width="12" stroke-linecap="round" stroke-linejoin="round"/>
  <circle cx="108" cy="304" r="9" fill="#F7FAFF"/>
  <circle cx="194" cy="254" r="9" fill="#F7FAFF"/>
  <circle cx="260" cy="270" r="9" fill="#F7FAFF"/>
  <circle cx="326" cy="216" r="9" fill="#F7FAFF"/>
  <circle cx="392" cy="236" r="9" fill="#F7FAFF"/>
  <circle cx="466" cy="170" r="9" fill="#F7FAFF"/>
  <text x="606" y="184" fill="#C5E6FF" font-family="'IBM Plex Sans TC', 'Noto Sans TC', sans-serif" font-size="30" font-weight="600">台股大盤・熱門股・主動式 ETF 研究站</text>
  <text x="606" y="278" fill="#FFFFFF" font-family="'IBM Plex Sans TC', 'Noto Sans TC', sans-serif" font-size="74" font-weight="700">台股主動通</text>
  <text x="606" y="352" fill="#E0F2FF" font-family="'IBM Plex Sans TC', 'Noto Sans TC', sans-serif" font-size="34" font-weight="500">把大盤節奏、熱門股、主動式 ETF、法人籌碼與技術面串成一條研究路徑</text>
  <g>
    <rect x="606" y="414" width="168" height="62" rx="31" fill="#0F7CB7"/>
    <text x="690" y="454" text-anchor="middle" fill="#FFFFFF" font-family="'IBM Plex Sans TC', 'Noto Sans TC', sans-serif" font-size="26" font-weight="600">即時盤勢</text>
    <rect x="792" y="414" width="188" height="62" rx="31" fill="#0A4F79"/>
    <text x="886" y="454" text-anchor="middle" fill="#FFFFFF" font-family="'IBM Plex Sans TC', 'Noto Sans TC', sans-serif" font-size="26" font-weight="600">ETF 異動</text>
    <rect x="998" y="414" width="128" height="62" rx="31" fill="#12486B"/>
    <text x="1062" y="454" text-anchor="middle" fill="#FFFFFF" font-family="'IBM Plex Sans TC', 'Noto Sans TC', sans-serif" font-size="26" font-weight="600">選股</text>
  </g>
  <text x="606" y="524" fill="#CDEBFF" font-family="'IBM Plex Sans TC', 'Noto Sans TC', sans-serif" font-size="24" font-weight="500">GitHub Pages 靜態部署｜TWSE OpenAPI｜盤中即時快照覆蓋</text>
  <defs>
    <linearGradient id="bg" x1="52" y1="34" x2="1142" y2="612" gradientUnits="userSpaceOnUse">
      <stop stop-color="#062D46"/>
      <stop offset="0.52" stop-color="#0A5B88"/>
      <stop offset="1" stop-color="#0E7AB6"/>
    </linearGradient>
    <linearGradient id="panel" x1="74" y1="78" x2="542" y2="552" gradientUnits="userSpaceOnUse">
      <stop stop-color="#0B699B"/>
      <stop offset="1" stop-color="#05304B"/>
    </linearGradient>
  </defs>
</svg>
